<?xml version="1.0" encoding="UTF-8"?>
<!DOCTYPE svg PUBLIC "-//W3C//DTD SVG 1.1//EN" "http://www.w3.org/Graphics/SVG/1.1/DTD/svg11.dtd">
<svg width="174mm" height="117mm" viewBox="0 0 17400 11700" version="1.1" baseProfile="tiny" xmlns="http://www.w3.org/2000/svg" stroke-width="28.222" stroke-linejoin="round" xml:space="preserve">
 <path fill="rgb(255,255,255)" stroke="none" d="M 8715,11660 L 0,11660 0,0 17429,0 17429,11660 8715,11660 Z"/>
 <path fill="none" stroke="rgb(179,179,179)" stroke-linejoin="round" d="M 9199,9486 L 1260,9486 1260,1197 17138,1197 17138,9486 9199,9486 Z"/>
 <path fill="none" stroke="rgb(179,179,179)" stroke-linejoin="round" d="M 17138,9485 L 1260,9485"/>
 <path fill="none" stroke="rgb(179,179,179)" stroke-linejoin="round" d="M 17138,8147 L 1260,8147"/>
 <path fill="none" stroke="rgb(179,179,179)" stroke-linejoin="round" d="M 17138,6810 L 1260,6810"/>
 <path fill="none" stroke="rgb(179,179,179)" stroke-linejoin="round" d="M 17138,5474 L 1260,5474"/>
 <path fill="none" stroke="rgb(179,179,179)" stroke-linejoin="round" d="M 17138,4137 L 1260,4137"/>
 <path fill="none" stroke="rgb(179,179,179)" stroke-linejoin="round" d="M 17138,2800 L 1260,2800"/>
 <path fill="none" stroke="rgb(179,179,179)" stroke-linejoin="round" d="M 17138,1463 L 1260,1463"/>
 <path fill="none" stroke="rgb(179,179,179)" stroke-linejoin="round" d="M 1260,9635 L 1260,9485"/>
 <path fill="none" stroke="rgb(179,179,179)" stroke-linejoin="round" d="M 1260,9635 L 1260,9485"/>
 <path fill="none" stroke="rgb(179,179,179)" stroke-linejoin="round" d="M 6553,9635 L 6553,9485"/>
 <path fill="none" stroke="rgb(179,179,179)" stroke-linejoin="round" d="M 6553,9635 L 6553,9485"/>
 <path fill="none" stroke="rgb(179,179,179)" stroke-linejoin="round" d="M 11845,9635 L 11845,9485"/>
 <path fill="none" stroke="rgb(179,179,179)" stroke-linejoin="round" d="M 11845,9635 L 11845,9485"/>
 <path fill="none" stroke="rgb(179,179,179)" stroke-linejoin="round" d="M 17138,9635 L 17138,9485"/>
 <path fill="none" stroke="rgb(179,179,179)" stroke-linejoin="round" d="M 17138,9635 L 17138,9485"/>
 <path fill="none" stroke="rgb(179,179,179)" stroke-linejoin="round" d="M 1260,9485 L 17138,9485"/>
 <path fill="none" stroke="rgb(179,179,179)" stroke-linejoin="round" d="M 1110,9485 L 1260,9485"/>
 <path fill="none" stroke="rgb(179,179,179)" stroke-linejoin="round" d="M 1110,9485 L 1260,9485"/>
 <path fill="none" stroke="rgb(179,179,179)" stroke-linejoin="round" d="M 1110,8147 L 1260,8147"/>
 <path fill="none" stroke="rgb(179,179,179)" stroke-linejoin="round" d="M 1110,8147 L 1260,8147"/>
 <path fill="none" stroke="rgb(179,179,179)" stroke-linejoin="round" d="M 1110,6810 L 1260,6810"/>
 <path fill="none" stroke="rgb(179,179,179)" stroke-linejoin="round" d="M 1110,6810 L 1260,6810"/>
 <path fill="none" stroke="rgb(179,179,179)" stroke-linejoin="round" d="M 1110,5474 L 1260,5474"/>
 <path fill="none" stroke="rgb(179,179,179)" stroke-linejoin="round" d="M 1110,5474 L 1260,5474"/>
 <path fill="none" stroke="rgb(179,179,179)" stroke-linejoin="round" d="M 1110,4137 L 1260,4137"/>
 <path fill="none" stroke="rgb(179,179,179)" stroke-linejoin="round" d="M 1110,4137 L 1260,4137"/>
 <path fill="none" stroke="rgb(179,179,179)" stroke-linejoin="round" d="M 1110,2800 L 1260,2800"/>
 <path fill="none" stroke="rgb(179,179,179)" stroke-linejoin="round" d="M 1110,2800 L 1260,2800"/>
 <path fill="none" stroke="rgb(179,179,179)" stroke-linejoin="round" d="M 1110,1463 L 1260,1463"/>
 <path fill="none" stroke="rgb(179,179,179)" stroke-linejoin="round" d="M 1110,1463 L 1260,1463"/>
 <path fill="none" stroke="rgb(179,179,179)" stroke-linejoin="round" d="M 1260,9485 L 1260,1196"/>
 <path fill="rgb(0,69,134)" stroke="none" d="M 12727,9485 L 14491,9485 14491,1431 12727,1431 12727,9485 Z"/>
 <path fill="rgb(0,69,134)" stroke="none" d="M 7435,9485 L 9198,9485 9198,5157 7435,5157 7435,9485 Z"/>
 <path fill="rgb(0,69,134)" stroke="none" d="M 2142,9485 L 3906,9485 3906,4319 2142,4319 2142,9485 Z"/>
 <path fill="rgb(255,66,14)" stroke="none" d="M 14491,9485 L 16255,9485 16255,1881 14491,1881 14491,9485 Z"/>
 <path fill="rgb(255,66,14)" stroke="none" d="M 9198,9485 L 10962,9485 10962,7744 9198,7744 9198,9485 Z"/>
 <path fill="rgb(255,66,14)" stroke="none" d="M 3906,9485 L 5670,9485 5670,8395 3906,8395 3906,9485 Z"/>
 <text class="TextShape"><tspan class="TextParagraph" font-family="Liberation Sans" font-size="353px" font-weight="400"><tspan class="TextPosition" x="3813" y="10053"><tspan fill="rgb(0,0,0)" stroke="none">0</tspan></tspan></tspan></text>
 <text class="TextShape"><tspan class="TextParagraph" font-family="Liberation Sans" font-size="353px" font-weight="400"><tspan class="TextPosition" x="8868" y="10053"><tspan fill="rgb(0,0,0)" stroke="none">0.01</tspan></tspan></tspan></text>
 <text class="TextShape"><tspan class="TextParagraph" font-family="Liberation Sans" font-size="353px" font-weight="400"><tspan class="TextPosition" x="14254" y="10053"><tspan fill="rgb(0,0,0)" stroke="none">0.1</tspan></tspan></tspan></text>
 <text class="TextShape"><tspan class="TextParagraph" font-family="Liberation Sans" font-size="353px" font-weight="400"><tspan class="TextPosition" x="825" y="9606"><tspan fill="rgb(0,0,0)" stroke="none">0</tspan></tspan></tspan></text>
 <text class="TextShape"><tspan class="TextParagraph" font-family="Liberation Sans" font-size="353px" font-weight="400"><tspan class="TextPosition" x="640" y="8268"><tspan fill="rgb(0,0,0)" stroke="none">10</tspan></tspan></tspan></text>
 <text class="TextShape"><tspan class="TextParagraph" font-family="Liberation Sans" font-size="353px" font-weight="400"><tspan class="TextPosition" x="640" y="6931"><tspan fill="rgb(0,0,0)" stroke="none">20</tspan></tspan></tspan></text>
 <text class="TextShape"><tspan class="TextParagraph" font-family="Liberation Sans" font-size="353px" font-weight="400"><tspan class="TextPosition" x="640" y="5594"><tspan fill="rgb(0,0,0)" stroke="none">30</tspan></tspan></tspan></text>
 <text class="TextShape"><tspan class="TextParagraph" font-family="Liberation Sans" font-size="353px" font-weight="400"><tspan class="TextPosition" x="640" y="4257"><tspan fill="rgb(0,0,0)" stroke="none">40</tspan></tspan></tspan></text>
 <text class="TextShape"><tspan class="TextParagraph" font-family="Liberation Sans" font-size="353px" font-weight="400"><tspan class="TextPosition" x="640" y="2920"><tspan fill="rgb(0,0,0)" stroke="none">50</tspan></tspan></tspan></text>
 <text class="TextShape"><tspan class="TextParagraph" font-family="Liberation Sans" font-size="353px" font-weight="400"><tspan class="TextPosition" x="640" y="1583"><tspan fill="rgb(0,0,0)" stroke="none">60</tspan></tspan></tspan></text>
 <text class="TextShape"><tspan class="TextParagraph" font-family="Liberation Sans" font-size="459px" font-weight="400"><tspan class="TextPosition" x="6148" y="930"><tspan fill="rgb(0,0,0)" stroke="none">2 controllers, 500 updates</tspan></tspan></tspan></text>
 <path fill="rgb(0,69,134)" stroke="none" d="M 7544,11280 L 7439,11280 7439,11069 7650,11069 7650,11280 7544,11280 Z"/>
 <path fill="rgb(255,66,14)" stroke="none" d="M 8698,11280 L 8593,11280 8593,11069 8803,11069 8803,11280 8698,11280 Z"/>
 <text class="TextShape"><tspan class="TextParagraph" font-family="Liberation Sans" font-size="353px" font-weight="400"><tspan class="TextPosition" x="7750" y="11294"><tspan fill="rgb(0,0,0)" stroke="none">with</tspan></tspan></tspan></text>
 <text class="TextShape"><tspan class="TextParagraph" font-family="Liberation Sans" font-size="353px" font-weight="400"><tspan class="TextPosition" x="8903" y="11294"><tspan fill="rgb(0,0,0)" stroke="none">without</tspan></tspan></tspan></text>
 <text class="TextShape"><tspan class="TextParagraph" font-family="Liberation Sans" font-size="318px" font-weight="400"><tspan class="TextPosition" x="7394" y="10753"><tspan fill="rgb(0,0,0)" stroke="none">Sleep time / seconds</tspan></tspan></tspan></text>
 <text class="TextShape"><tspan class="TextParagraph" font-family="Liberation Sans" font-size="318px" font-weight="400"><tspan class="TextPosition" x="386" y="6736" transform="translate(386,6736) rotate(-89.9) translate(-386,-6736)"><tspan fill="rgb(0,0,0)" stroke="none">Time / seconds</tspan></tspan></tspan></text>
</svg>