<?xml version="1.0" encoding="UTF-8"?>
<!DOCTYPE svg PUBLIC "-//W3C//DTD SVG 1.1//EN" "http://www.w3.org/Graphics/SVG/1.1/DTD/svg11.dtd">
<svg width="175mm" height="119mm" viewBox="0 0 17500 11900" version="1.1" baseProfile="tiny" xmlns="http://www.w3.org/2000/svg" stroke-width="28.222" stroke-linejoin="round" xml:space="preserve">
 <path fill="rgb(255,255,255)" stroke="none" d="M 8728,11926 L 0,11926 0,0 17456,0 17456,11926 8728,11926 Z"/>
 <path fill="none" stroke="rgb(179,179,179)" stroke-linejoin="round" d="M 9057,9536 L 1015,9536 1015,1218 17100,1218 17100,9536 9057,9536 Z"/>
 <path fill="none" stroke="rgb(179,179,179)" stroke-linejoin="round" d="M 17100,9535 L 1015,9535"/>
 <path fill="none" stroke="rgb(179,179,179)" stroke-linejoin="round" d="M 17100,8148 L 1015,8148"/>
 <path fill="none" stroke="rgb(179,179,179)" stroke-linejoin="round" d="M 17100,6762 L 1015,6762"/>
 <path fill="none" stroke="rgb(179,179,179)" stroke-linejoin="round" d="M 17100,5376 L 1015,5376"/>
 <path fill="none" stroke="rgb(179,179,179)" stroke-linejoin="round" d="M 17100,3990 L 1015,3990"/>
 <path fill="none" stroke="rgb(179,179,179)" stroke-linejoin="round" d="M 17100,2603 L 1015,2603"/>
 <path fill="none" stroke="rgb(179,179,179)" stroke-linejoin="round" d="M 17100,1217 L 1015,1217"/>
 <path fill="none" stroke="rgb(179,179,179)" stroke-linejoin="round" d="M 1015,9685 L 1015,9535"/>
 <path fill="none" stroke="rgb(179,179,179)" stroke-linejoin="round" d="M 1015,9685 L 1015,9535"/>
 <path fill="none" stroke="rgb(179,179,179)" stroke-linejoin="round" d="M 6377,9685 L 6377,9535"/>
 <path fill="none" stroke="rgb(179,179,179)" stroke-linejoin="round" d="M 6377,9685 L 6377,9535"/>
 <path fill="none" stroke="rgb(179,179,179)" stroke-linejoin="round" d="M 11738,9685 L 11738,9535"/>
 <path fill="none" stroke="rgb(179,179,179)" stroke-linejoin="round" d="M 11738,9685 L 11738,9535"/>
 <path fill="none" stroke="rgb(179,179,179)" stroke-linejoin="round" d="M 17100,9685 L 17100,9535"/>
 <path fill="none" stroke="rgb(179,179,179)" stroke-linejoin="round" d="M 17100,9685 L 17100,9535"/>
 <path fill="none" stroke="rgb(179,179,179)" stroke-linejoin="round" d="M 1015,9535 L 17100,9535"/>
 <path fill="none" stroke="rgb(179,179,179)" stroke-linejoin="round" d="M 865,9535 L 1015,9535"/>
 <path fill="none" stroke="rgb(179,179,179)" stroke-linejoin="round" d="M 865,9535 L 1015,9535"/>
 <path fill="none" stroke="rgb(179,179,179)" stroke-linejoin="round" d="M 865,8148 L 1015,8148"/>
 <path fill="none" stroke="rgb(179,179,179)" stroke-linejoin="round" d="M 865,8148 L 1015,8148"/>
 <path fill="none" stroke="rgb(179,179,179)" stroke-linejoin="round" d="M 865,6762 L 1015,6762"/>
 <path fill="none" stroke="rgb(179,179,179)" stroke-linejoin="round" d="M 865,6762 L 1015,6762"/>
 <path fill="none" stroke="rgb(179,179,179)" stroke-linejoin="round" d="M 865,5376 L 1015,5376"/>
 <path fill="none" stroke="rgb(179,179,179)" stroke-linejoin="round" d="M 865,5376 L 1015,5376"/>
 <path fill="none" stroke="rgb(179,179,179)" stroke-linejoin="round" d="M 865,3990 L 1015,3990"/>
 <path fill="none" stroke="rgb(179,179,179)" stroke-linejoin="round" d="M 865,3990 L 1015,3990"/>
 <path fill="none" stroke="rgb(179,179,179)" stroke-linejoin="round" d="M 865,2603 L 1015,2603"/>
 <path fill="none" stroke="rgb(179,179,179)" stroke-linejoin="round" d="M 865,2603 L 1015,2603"/>
 <path fill="none" stroke="rgb(179,179,179)" stroke-linejoin="round" d="M 865,1217 L 1015,1217"/>
 <path fill="none" stroke="rgb(179,179,179)" stroke-linejoin="round" d="M 865,1217 L 1015,1217"/>
 <path fill="none" stroke="rgb(179,179,179)" stroke-linejoin="round" d="M 1015,9535 L 1015,1217"/>
 <path fill="rgb(0,69,134)" stroke="none" d="M 12631,9535 L 14419,9535 14419,1337 12631,1337 12631,9535 Z"/>
 <path fill="rgb(0,69,134)" stroke="none" d="M 7270,9535 L 9057,9535 9057,4473 7270,4473 7270,9535 Z"/>
 <path fill="rgb(0,69,134)" stroke="none" d="M 1908,9535 L 3696,9535 3696,3712 1908,3712 1908,9535 Z"/>
 <path fill="rgb(255,66,14)" stroke="none" d="M 14419,9535 L 16206,9535 16206,2221 14419,2221 14419,9535 Z"/>
 <path fill="rgb(255,66,14)" stroke="none" d="M 9057,9535 L 10844,9535 10844,8075 9057,8075 9057,9535 Z"/>
 <path fill="rgb(255,66,14)" stroke="none" d="M 3696,9535 L 5483,9535 5483,8439 3696,8439 3696,9535 Z"/>
 <text class="TextShape"><tspan class="TextParagraph" font-family="Liberation Sans, sans-serif" font-size="353px" font-weight="400"><tspan class="TextPosition" x="3603" y="10103"><tspan fill="rgb(0,0,0)" stroke="none">0</tspan></tspan></tspan></text>
 <text class="TextShape"><tspan class="TextParagraph" font-family="Liberation Sans, sans-serif" font-size="353px" font-weight="400"><tspan class="TextPosition" x="8727" y="10103"><tspan fill="rgb(0,0,0)" stroke="none">0.01</tspan></tspan></tspan></text>
 <text class="TextShape"><tspan class="TextParagraph" font-family="Liberation Sans, sans-serif" font-size="353px" font-weight="400"><tspan class="TextPosition" x="14182" y="10103"><tspan fill="rgb(0,0,0)" stroke="none">0.1</tspan></tspan></tspan></text>
 <text class="TextShape"><tspan class="TextParagraph" font-family="Liberation Sans, sans-serif" font-size="353px" font-weight="400"><tspan class="TextPosition" x="580" y="9656"><tspan fill="rgb(0,0,0)" stroke="none">0</tspan></tspan></tspan></text>
 <text class="TextShape"><tspan class="TextParagraph" font-family="Liberation Sans, sans-serif" font-size="353px" font-weight="400"><tspan class="TextPosition" x="580" y="8269"><tspan fill="rgb(0,0,0)" stroke="none">2</tspan></tspan></tspan></text>
 <text class="TextShape"><tspan class="TextParagraph" font-family="Liberation Sans, sans-serif" font-size="353px" font-weight="400"><tspan class="TextPosition" x="580" y="6883"><tspan fill="rgb(0,0,0)" stroke="none">4</tspan></tspan></tspan></text>
 <text class="TextShape"><tspan class="TextParagraph" font-family="Liberation Sans, sans-serif" font-size="353px" font-weight="400"><tspan class="TextPosition" x="580" y="5496"><tspan fill="rgb(0,0,0)" stroke="none">6</tspan></tspan></tspan></text>
 <text class="TextShape"><tspan class="TextParagraph" font-family="Liberation Sans, sans-serif" font-size="353px" font-weight="400"><tspan class="TextPosition" x="580" y="4110"><tspan fill="rgb(0,0,0)" stroke="none">8</tspan></tspan></tspan></text>
 <text class="TextShape"><tspan class="TextParagraph" font-family="Liberation Sans, sans-serif" font-size="353px" font-weight="400"><tspan class="TextPosition" x="395" y="2723"><tspan fill="rgb(0,0,0)" stroke="none">10</tspan></tspan></tspan></text>
 <text class="TextShape"><tspan class="TextParagraph" font-family="Liberation Sans, sans-serif" font-size="353px" font-weight="400"><tspan class="TextPosition" x="395" y="1337"><tspan fill="rgb(0,0,0)" stroke="none">12</tspan></tspan></tspan></text>
 <text class="TextShape"><tspan class="TextParagraph" font-family="Liberation Sans, sans-serif" font-size="459px" font-weight="400"><tspan class="TextPosition" x="6082" y="737"><tspan fill="rgb(0,0,0)" stroke="none">2 controllers, 100 updates</tspan></tspan></tspan></text>
 <path fill="rgb(0,69,134)" stroke="none" d="M 7557,11547 L 7452,11547 7452,11336 7663,11336 7663,11547 7557,11547 Z"/>
 <path fill="rgb(255,66,14)" stroke="none" d="M 8711,11547 L 8606,11547 8606,11336 8816,11336 8816,11547 8711,11547 Z"/>
 <text class="TextShape"><tspan class="TextParagraph" font-family="Liberation Sans, sans-serif" font-size="353px" font-weight="400"><tspan class="TextPosition" x="7763" y="11561"><tspan fill="rgb(0,0,0)" stroke="none">with</tspan></tspan></tspan></text>
 <text class="TextShape"><tspan class="TextParagraph" font-family="Liberation Sans, sans-serif" font-size="353px" font-weight="400"><tspan class="TextPosition" x="8916" y="11561"><tspan fill="rgb(0,0,0)" stroke="none">without</tspan></tspan></tspan></text>
 <text class="TextShape"><tspan class="TextParagraph" font-family="Liberation Sans, sans-serif" font-size="318px" font-weight="400"><tspan class="TextPosition" x="7292" y="10808"><tspan fill="rgb(0,0,0)" stroke="none">Sleep time/ seconds</tspan></tspan></tspan></text>
 <text class="TextShape"><tspan class="TextParagraph" font-family="Liberation Sans, sans-serif" font-size="318px" font-weight="400"><tspan class="TextPosition" x="386" y="6592" transform="translate(386,6592) rotate(-89.9) translate(-386,-6592)"><tspan fill="rgb(0,0,0)" stroke="none">Time/seconds</tspan></tspan></tspan></text>
</svg>