<?xml version="1.0" encoding="UTF-8"?>
<!DOCTYPE svg PUBLIC "-//W3C//DTD SVG 1.1//EN" "http://www.w3.org/Graphics/SVG/1.1/DTD/svg11.dtd">
<svg width="172mm" height="117mm" viewBox="0 0 17200 11700" version="1.1" baseProfile="tiny" xmlns="http://www.w3.org/2000/svg" stroke-width="28.222" stroke-linejoin="round" xml:space="preserve">
 <path fill="rgb(255,255,255)" stroke="none" d="M 8618,11741 L 0,11741 0,0 17236,0 17236,11741 8618,11741 Z"/>
 <path fill="none" stroke="rgb(179,179,179)" stroke-linejoin="round" d="M 9033,9503 L 1181,9503 1181,1351 16886,1351 16886,9503 9033,9503 Z"/>
 <path fill="none" stroke="rgb(179,179,179)" stroke-linejoin="round" d="M 16886,9502 L 1181,9502"/>
 <path fill="none" stroke="rgb(179,179,179)" stroke-linejoin="round" d="M 16886,8294 L 1181,8294"/>
 <path fill="none" stroke="rgb(179,179,179)" stroke-linejoin="round" d="M 16886,7086 L 1181,7086"/>
 <path fill="none" stroke="rgb(179,179,179)" stroke-linejoin="round" d="M 16886,5878 L 1181,5878"/>
 <path fill="none" stroke="rgb(179,179,179)" stroke-linejoin="round" d="M 16886,4671 L 1181,4671"/>
 <path fill="none" stroke="rgb(179,179,179)" stroke-linejoin="round" d="M 16886,3463 L 1181,3463"/>
 <path fill="none" stroke="rgb(179,179,179)" stroke-linejoin="round" d="M 16886,2255 L 1181,2255"/>
 <path fill="none" stroke="rgb(179,179,179)" stroke-linejoin="round" d="M 1181,9652 L 1181,9502"/>
 <path fill="none" stroke="rgb(179,179,179)" stroke-linejoin="round" d="M 1181,9652 L 1181,9502"/>
 <path fill="none" stroke="rgb(179,179,179)" stroke-linejoin="round" d="M 6416,9652 L 6416,9502"/>
 <path fill="none" stroke="rgb(179,179,179)" stroke-linejoin="round" d="M 6416,9652 L 6416,9502"/>
 <path fill="none" stroke="rgb(179,179,179)" stroke-linejoin="round" d="M 11650,9652 L 11650,9502"/>
 <path fill="none" stroke="rgb(179,179,179)" stroke-linejoin="round" d="M 11650,9652 L 11650,9502"/>
 <path fill="none" stroke="rgb(179,179,179)" stroke-linejoin="round" d="M 16886,9652 L 16886,9502"/>
 <path fill="none" stroke="rgb(179,179,179)" stroke-linejoin="round" d="M 16886,9652 L 16886,9502"/>
 <path fill="none" stroke="rgb(179,179,179)" stroke-linejoin="round" d="M 1181,9502 L 16886,9502"/>
 <path fill="none" stroke="rgb(179,179,179)" stroke-linejoin="round" d="M 1031,9502 L 1181,9502"/>
 <path fill="none" stroke="rgb(179,179,179)" stroke-linejoin="round" d="M 1031,9502 L 1181,9502"/>
 <path fill="none" stroke="rgb(179,179,179)" stroke-linejoin="round" d="M 1031,8294 L 1181,8294"/>
 <path fill="none" stroke="rgb(179,179,179)" stroke-linejoin="round" d="M 1031,8294 L 1181,8294"/>
 <path fill="none" stroke="rgb(179,179,179)" stroke-linejoin="round" d="M 1031,7086 L 1181,7086"/>
 <path fill="none" stroke="rgb(179,179,179)" stroke-linejoin="round" d="M 1031,7086 L 1181,7086"/>
 <path fill="none" stroke="rgb(179,179,179)" stroke-linejoin="round" d="M 1031,5878 L 1181,5878"/>
 <path fill="none" stroke="rgb(179,179,179)" stroke-linejoin="round" d="M 1031,5878 L 1181,5878"/>
 <path fill="none" stroke="rgb(179,179,179)" stroke-linejoin="round" d="M 1031,4671 L 1181,4671"/>
 <path fill="none" stroke="rgb(179,179,179)" stroke-linejoin="round" d="M 1031,4671 L 1181,4671"/>
 <path fill="none" stroke="rgb(179,179,179)" stroke-linejoin="round" d="M 1031,3463 L 1181,3463"/>
 <path fill="none" stroke="rgb(179,179,179)" stroke-linejoin="round" d="M 1031,3463 L 1181,3463"/>
 <path fill="none" stroke="rgb(179,179,179)" stroke-linejoin="round" d="M 1031,2255 L 1181,2255"/>
 <path fill="none" stroke="rgb(179,179,179)" stroke-linejoin="round" d="M 1031,2255 L 1181,2255"/>
 <path fill="none" stroke="rgb(179,179,179)" stroke-linejoin="round" d="M 1181,9502 L 1181,1349"/>
 <path fill="rgb(0,69,134)" stroke="none" d="M 12523,9502 L 14268,9502 14268,1631 12523,1631 12523,9502 Z"/>
 <path fill="rgb(0,69,134)" stroke="none" d="M 7288,9502 L 9033,9502 9033,3179 7288,3179 7288,9502 Z"/>
 <path fill="rgb(0,69,134)" stroke="none" d="M 2053,9502 L 3798,9502 3798,3723 2053,3723 2053,9502 Z"/>
 <path fill="rgb(255,66,14)" stroke="none" d="M 14268,9502 L 16013,9502 16013,3068 14268,3068 14268,9502 Z"/>
 <path fill="rgb(255,66,14)" stroke="none" d="M 9033,9502 L 10778,9502 10778,8736 9033,8736 9033,9502 Z"/>
 <path fill="rgb(255,66,14)" stroke="none" d="M 3798,9502 L 5543,9502 5543,8680 3798,8680 3798,9502 Z"/>
 <text class="TextShape"><tspan class="TextParagraph" font-family="Liberation Sans" font-size="353px" font-weight="400"><tspan class="TextPosition" x="3705" y="10070"><tspan fill="rgb(0,0,0)" stroke="none">0</tspan></tspan></tspan></text>
 <text class="TextShape"><tspan class="TextParagraph" font-family="Liberation Sans" font-size="353px" font-weight="400"><tspan class="TextPosition" x="8703" y="10070"><tspan fill="rgb(0,0,0)" stroke="none">0.01</tspan></tspan></tspan></text>
 <text class="TextShape"><tspan class="TextParagraph" font-family="Liberation Sans" font-size="353px" font-weight="400"><tspan class="TextPosition" x="14031" y="10070"><tspan fill="rgb(0,0,0)" stroke="none">0.1</tspan></tspan></tspan></text>
 <text class="TextShape"><tspan class="TextParagraph" font-family="Liberation Sans" font-size="353px" font-weight="400"><tspan class="TextPosition" x="746" y="9623"><tspan fill="rgb(0,0,0)" stroke="none">0</tspan></tspan></tspan></text>
 <text class="TextShape"><tspan class="TextParagraph" font-family="Liberation Sans" font-size="353px" font-weight="400"><tspan class="TextPosition" x="561" y="8415"><tspan fill="rgb(0,0,0)" stroke="none">20</tspan></tspan></tspan></text>
 <text class="TextShape"><tspan class="TextParagraph" font-family="Liberation Sans" font-size="353px" font-weight="400"><tspan class="TextPosition" x="561" y="7207"><tspan fill="rgb(0,0,0)" stroke="none">40</tspan></tspan></tspan></text>
 <text class="TextShape"><tspan class="TextParagraph" font-family="Liberation Sans" font-size="353px" font-weight="400"><tspan class="TextPosition" x="561" y="5999"><tspan fill="rgb(0,0,0)" stroke="none">60</tspan></tspan></tspan></text>
 <text class="TextShape"><tspan class="TextParagraph" font-family="Liberation Sans" font-size="353px" font-weight="400"><tspan class="TextPosition" x="561" y="4791"><tspan fill="rgb(0,0,0)" stroke="none">80</tspan></tspan></tspan></text>
 <text class="TextShape"><tspan class="TextParagraph" font-family="Liberation Sans" font-size="353px" font-weight="400"><tspan class="TextPosition" x="375" y="3583"><tspan fill="rgb(0,0,0)" stroke="none">100</tspan></tspan></tspan></text>
 <text class="TextShape"><tspan class="TextParagraph" font-family="Liberation Sans" font-size="353px" font-weight="400"><tspan class="TextPosition" x="375" y="2375"><tspan fill="rgb(0,0,0)" stroke="none">120</tspan></tspan></tspan></text>
 <text class="TextShape"><tspan class="TextParagraph" font-family="Liberation Sans" font-size="459px" font-weight="400"><tspan class="TextPosition" x="6051" y="931"><tspan fill="rgb(0,0,0)" stroke="none">4 controllers, 500 updates</tspan></tspan></tspan></text>
 <path fill="rgb(0,69,134)" stroke="none" d="M 7447,11362 L 7342,11362 7342,11151 7553,11151 7553,11362 7447,11362 Z"/>
 <path fill="rgb(255,66,14)" stroke="none" d="M 8601,11362 L 8496,11362 8496,11151 8706,11151 8706,11362 8601,11362 Z"/>
 <text class="TextShape"><tspan class="TextParagraph" font-family="Liberation Sans" font-size="353px" font-weight="400"><tspan class="TextPosition" x="7653" y="11376"><tspan fill="rgb(0,0,0)" stroke="none">with</tspan></tspan></tspan></text>
 <text class="TextShape"><tspan class="TextParagraph" font-family="Liberation Sans" font-size="353px" font-weight="400"><tspan class="TextPosition" x="8806" y="11376"><tspan fill="rgb(0,0,0)" stroke="none">without</tspan></tspan></tspan></text>
 <text class="TextShape"><tspan class="TextParagraph" font-family="Liberation Sans" font-size="318px" font-weight="400"><tspan class="TextPosition" x="7135" y="10771"><tspan fill="rgb(0,0,0)" stroke="none">Sleep time / seconds</tspan></tspan></tspan></text>
 <text class="TextShape"><tspan class="TextParagraph" font-family="Liberation Sans" font-size="318px" font-weight="400"><tspan class="TextPosition" x="386" y="6822" transform="translate(386,6822) rotate(-89.9) translate(-386,-6822)"><tspan fill="rgb(0,0,0)" stroke="none">Time / seconds</tspan></tspan></tspan></text>
</svg>